<svg xmlns="http://www.w3.org/2000/svg" width="94" height="94" preserveAspectRatio="xMidYMid meet" version="1.0" viewBox="0 0 70.5 70.5" zoomAndPan="magnify"><defs><clipPath id="id1"><path d="M 0.140625 0.140625 L 70.003906 0.140625 L 70.003906 70.003906 L 0.140625 70.003906 Z M 0.140625 0.140625" clip-rule="nonzero"/></clipPath><clipPath id="id2"><path d="M 35.320312 17.503906 L 40.890625 0.140625 L 40.820312 18.378906 L 51.488281 3.574219 L 45.789062 20.894531 L 60.507812 10.128906 L 49.730469 24.851562 L 67.050781 19.152344 L 52.25 29.816406 L 70.484375 29.746094 L 53.136719 35.320312 L 70.5 40.890625 L 52.261719 40.820312 L 67.066406 51.488281 L 49.742188 45.789062 L 60.507812 60.507812 L 45.789062 49.730469 L 51.488281 67.050781 L 40.820312 52.25 L 40.890625 70.484375 L 35.320312 53.136719 L 29.746094 70.5 L 29.816406 52.261719 L 19.152344 67.066406 L 24.851562 49.742188 L 10.128906 60.507812 L 20.910156 45.789062 L 3.585938 51.488281 L 18.390625 40.820312 L 0.140625 40.890625 L 17.503906 35.320312 L 0.140625 29.746094 L 18.378906 29.816406 L 3.585938 19.152344 L 20.910156 24.851562 L 10.128906 10.128906 L 24.851562 20.910156 L 19.152344 3.585938 L 29.816406 18.390625 L 29.746094 0.140625 Z M 35.320312 17.503906" clip-rule="nonzero"/></clipPath></defs><g clip-path="url(#id1)"><g clip-path="url(#id2)"><path fill="#1649ff" fill-opacity="1" fill-rule="nonzero" d="M 0.140625 0.140625 L 70.5 0.140625 L 70.5 70.5 L 0.140625 70.5 Z M 0.140625 0.140625"/></g></g></svg>