<svg xmlns="http://www.w3.org/2000/svg" width="94" height="94" preserveAspectRatio="xMidYMid meet" version="1.0" viewBox="0 0 70.5 70.5" zoomAndPan="magnify"><defs><clipPath id="id1"><path d="M 27.585938 30.269531 L 35.859375 30.269531 L 35.859375 38.546875 L 27.585938 38.546875 Z M 27.585938 30.269531" clip-rule="nonzero"/></clipPath><clipPath id="id2"><path d="M 31.722656 32.3125 L 32.378906 30.269531 L 32.371094 32.417969 L 33.625 30.675781 L 32.953125 32.710938 L 34.683594 31.445312 L 33.417969 33.175781 L 35.453125 32.507812 L 33.714844 33.761719 L 35.859375 33.753906 L 33.816406 34.410156 L 35.859375 35.0625 L 33.714844 35.054688 L 35.457031 36.3125 L 33.417969 35.640625 L 34.683594 37.371094 L 32.953125 36.105469 L 33.625 38.140625 L 32.371094 36.398438 L 32.378906 38.546875 L 31.722656 36.503906 L 31.066406 38.546875 L 31.074219 36.402344 L 29.820312 38.144531 L 30.492188 36.105469 L 28.757812 37.371094 L 30.027344 35.640625 L 27.988281 36.3125 L 29.730469 35.054688 L 27.585938 35.0625 L 29.625 34.410156 L 27.585938 33.753906 L 29.730469 33.761719 L 27.988281 32.507812 L 30.027344 33.175781 L 28.757812 31.445312 L 30.492188 32.714844 L 29.820312 30.675781 L 31.074219 32.417969 L 31.066406 30.269531 Z M 31.722656 32.3125" clip-rule="nonzero"/></clipPath></defs><g clip-path="url(#id1)"><g clip-path="url(#id2)"><path fill="#1649ff" fill-opacity="1" fill-rule="nonzero" d="M 27.585938 30.269531 L 35.859375 30.269531 L 35.859375 38.546875 L 27.585938 38.546875 Z M 27.585938 30.269531"/></g></g></svg>