<svg width="1600" height="1154" fill="none" xmlns="http://www.w3.org/2000/svg">
    <g opacity=".9" stroke="#30363D">
        <path opacity=".3"
              d="M242 0v118.323H50v89.101h95.207V296H242M49.5 384.5h96v88h-96zM49.5 296.5h96v88h-96zM98.5 118v89M50.5 25v93M145.5 25v182M242.5 117v447M49.5 207v89M24.5 251v45M98.5 296v89M49.5 473v92M49.5 699v454M146.5 744v409M241.5 835v318M96.5 926v89M194.5 1015v45M337.5 1040v113M433.5 1040v113M481.5 1040v113M458.5 1040v65M529.5 1040v113M625.5 1040v113M721.5 1040v113M816.5 1040v113M769.5 1040v65M864.5 1040v65M913.5 1040v113M1008.5 835v318M1105.5 835v318M1056.5 835v270M1032.5 971v89M1044.5 1017v22M1080.5 837v43M1093.5 858v22M1116.5 904v22M1188.5 927v22M1129.5 881v47M1176.5 928v45M1151.5 837v178M1441.5 837v89M1536.5 609v47M1560.5 520v90M1572.5 543v44M1536.5 474v92M1489.5 1v519M1392.5 115v359M1441.5 205v90M1296.5 1v204M1200.5 1v204M1104.5 1v204M1153.5 1v114M1176.5 1v23M1080.5 115v90M1092.5 183v22M1344.5 160v45M1057.5 1v204M1009.5 1v204M912.5 1v97M816.5 24v74M722.5 24v74M625.5 24v74M552.5 1v23M576.5 1v97M528.5 1v97M434.5 1v97M337.5 1v97M1536.5 205v90M1560.5 250v45M1548.5 272v23M1441.5 1016v89M1536.5 928v89M1560.5 927v44M1548.5 948v23M1201.5 837v316M1298.5 837v316M1392.5 745v408M1489.5 655v498M1583.5 1v1152M146 162.5H50M284 207.5H145M146 340.5H50M284 385.5H146M284 473.5H146M284 744.5H0M284 835.5H0M284 926.5H0M146 971.5H0M284 1015.5H0M1600 1105.5H0M1600 1153.5H0M241 1060.5h-95M529 1060.5h-95M913 1060.5H721M1105 1060.5h-96M1201 880.5h-192M1489 1060.5h-97M1600 971.5h-111M1489 881.5h-97M1600 745.5h-208M1536 655.5h-47M1583 609.5h-47M1583 520.5h-94M1583 542.5h-47M1583 554.5h-23M1583 587.5h-23M1600 655.5h-17M1600 429.5h-17M1600 318.5h-17M1584 272.5h-48M1560 283.5h-24M1600 699.5h-17M1583 576.5h-23M1600 565.5h-64M1600 474.5h-208M1600 384.5h-208M1600 295.5h-208M1600 250.5h-208M1600 205.5H992M1600 115.5H992M1600 24.5h-111M1392 160.5h-96M1296 24.5h-287M722 24.5H241M625 70.5h-97M913 24.5h-97M1200 70.5h-191M1105 160.5h-96M1105 137.5h-48M1105 182.5h-48M1586 947.5h-50M1561 959.5h-25M1056 1038.5h-47M1152 904.5h-47M1105 858.5h-49M1201 949.5h-49M1056 1027.5h-24M1129 915.5h-24M1105 869.5h-24M1201 938.5h-24M1033 993.5h-24M1600 1016.5H992M1296 972.5H992M1598 926.5H992M1598 836.5H992M482 1083.5h-48M529 1153.5h-95M284 564.5h-42M50 564.5H-2M50 699.5H-2M284 296.5h-42M284 251.5h-42M284 118.5h-42M50 296.5H0M50 385.5H0M50 272.5H0M50 251.5H0M50 207.5H0M50 118.5H0M50 77.5H0M146 25.5H0"/>
    </g>
</svg>
