<svg fill="none" height="64" viewBox="0 0 66 64" width="66" xmlns="http://www.w3.org/2000/svg">
    <linearGradient id="a" gradientUnits="userSpaceOnUse" x1="32.6154" x2="32.6154" y1=".001562" y2="63.9949">
        <stop offset="0" stop-color="#fff"/>
        <stop offset="1" stop-color="#fff" stop-opacity="0"/>
    </linearGradient>
    <path d="m9.42449 50.3587c-.38219.322-.84745.5332-1.34407.6101s-1.00514.0165-1.46901-.1746l-4.93987-2.0438c-.49275-.2027-.914042-.544-1.211309-.9813-.297266-.4374-.45733584-.9514-.460231-1.4779v-28.5859c.00289516-.5265.162965-1.0405.460231-1.4778.297267-.4374.718559-.7787 1.211309-.9814l4.93987-2.0103c.46387-.191.97239-.2514 1.46901-.1746.49662.0769.96188.2882 1.34407.6102l1.10761.9046c-.2247-.1592-.4895-.2542-.76536-.2744s-.55202.0351-.79802.1599c-.24599.1248-.45226.3141-.59606.5472-.14379.233-.21951.5007-.21882.7735v32.4322c-.00069.2728.07503.5405.21882.7735.1438.233.35007.4224.59606.5471.246.1248.52216.1801.79802.1599s.54066-.1151.76536-.2744z"
          fill="#52218a"/>
    <path d="m1.67154 48.7508c-.49275-.2027-.914042-.544-1.211308-.9813-.297267-.4374-.45733684-.9514-.460232-1.4779v-.2211c.00334932.3094.100638.6107.279312.865.178675.2543.430534.45.723078.5618.29255.1118.61235.1346.91814.0654.3058-.0692.58355-.2272.79742-.4536l42.12825-45.93443c.5966-.585426 1.3623-.97442 2.192-1.1135917.8297-.1391718 1.6827-.0217007 2.4421.3362907l13.4402 6.379231c.6923.32825 1.2764.8427 1.6852 1.48408.4087.64137.6254 1.38357.6251 2.14112v.1541c-.0005-.4806-.1391-.95117-.4-1.35711-.2608-.40594-.633-.73057-1.0735-.93617s-.931-.28375-1.4147-.22535-.9407.25094-1.3179.55526l-50.4926 40.82837-1.10761.9382c-.38219.322-.84745.5332-1.34407.6101s-1.00514.0165-1.46901-.1746z"
          fill="#6c33af"/>
    <path d="m1.67154 15.2463c-.49275.2027-.914042.544-1.211308.9814-.297267.4373-.45733684.9513-.460232 1.4778v.2212c.00334932-.3094.100638-.6107.279312-.865.178675-.2544.430534-.45.723078-.5618.29255-.1118.61235-.1346.91814-.0654.3058.0692.58355.2272.79742.4535l42.12825 45.9345c.5966.5854 1.3623.9744 2.192 1.1136s1.6827.0217 2.4421-.3363l13.4402-6.3792c.6923-.3283 1.2764-.8427 1.6852-1.4841.4087-.6414.6254-1.3836.6251-2.1411v-.1541c-.0005.4806-.1391.9511-.4 1.3571-.2608.4059-.633.7305-1.0735.9361-.4405.2057-.931.2838-1.4147.2254s-.9407-.2509-1.3179-.5553l-50.4926-40.8284-1.10761-.9381c-.38559-.3165-.85249-.5216-1.349-.5926-.4965-.0709-1.00324-.005-1.46408.1906z"
          fill="#854cc7"/>
    <path d="m49.4798 63.5997c-.7593.358-1.6124.4755-2.4421.3363s-1.5954-.5282-2.192-1.1136c.3349.3279.7606.5507 1.2235.6405.463.0898.9426.0426 1.3784-.1358s.8084-.4799 1.0709-.8666c.2624-.3867.4031-.8413.4041-1.3066v-58.29756c.0016-.46646-.137-.92293-.3985-1.31168-.2614-.38875-.6338-.692327-1.0702-.872349s-.9171-.228405-1.3813-.13903c-.4643.089375-.8912.312493-1.2269.641149.5966-.58543 1.3623-.974424 2.192-1.1135958.8297-.1391719 1.6828-.0217007 2.4421.3362908l13.4403 6.372525c.6922.32826 1.2764.84271 1.6851 1.48408.4088.64137.6254 1.38357.6251 2.14107v43.2072c.0003.7575-.2163 1.4997-.6251 2.1411-.4087.6414-.9929 1.1558-1.6851 1.4841z"
          fill="#b179f1"/>
    <path clip-rule="evenodd"
          d="m46.8099 63.8943c.8983.2022 1.8396.0983 2.6704-.2948l13.4402-6.3725c.6923-.3283 1.2764-.8427 1.6852-1.4841.4087-.6414.6254-1.3836.6251-2.1411v-43.2072c.0003-.75751-.2164-1.49971-.6251-2.14108-.4088-.64137-.9929-1.15582-1.6852-1.48408l-13.4402-6.372527c-.951-.450802-2.0422-.520458-3.0442-.194325-.5991.197976-1.1435.530606-1.5899.971622l-21.6621 23.62729-12.652-10.2255-1.10761-.9382c-.33311-.2808-.73014-.4781-1.15726-.5749-.42712-.0969-.87165-.0904-1.29569.0188-.12417.027-.24494.0675-.36013.1206l-4.93987 2.0437c-.46236.1883-.863059.4987-1.157984.8972-.294926.3984-.4726344.8694-.513556 1.361v.2011 28.5859.201c.0409216.4916.21863.9626.513556 1.361.294925.3985.695624.7089 1.157984.8972l4.93987 2.0102c.11519.0532.23596.0936.36013.1207.42404.1092.86857.1156 1.29569.0188.42712-.0969.82415-.2941 1.15726-.575l1.10761-.9046 12.652-10.2256 21.6621 23.6273c.5399.5315 1.2203.903 1.9637 1.0721zm2.1132-45.5123-16.8445 13.6162 16.8445 13.6162zm-40.76925 4.4159 8.43245 9.2003-8.43245 9.2003z"
          fill="url(#a)" fill-rule="evenodd" opacity=".0625"/>
</svg>